<?xml version="1.0" encoding="UTF-8" standalone="no"?>
<svg width="837px" height="170px" viewBox="0 0 837 170" version="1.1" xmlns="http://www.w3.org/2000/svg" xmlns:xlink="http://www.w3.org/1999/xlink">
    <!-- Generator: Sketch 40.3 (33839) - http://www.bohemiancoding.com/sketch -->
    <title>Mask + Group + rounded copy 2</title>
    <desc>Created with Sketch.</desc>
    <defs>
        <path d="M151.512451,138.901043 C165.751884,121.831777 183.152343,94.938411 200,107.021799 C190.286036,97.8082157 177.232897,96.2977922 162.66195,103.24574 C151.733741,108.532222 140.805531,119.256229 130.636225,129.829194 C105.895972,154.449097 65.8258701,154.449097 41.2373984,129.980236 C16.6489266,105.511375 16.6489266,65.6361952 41.2373984,41.1673346 C65.8258701,16.698474 105.895972,16.698474 130.484444,41.1673346 C147.483881,58.0840777 152.796205,82.5529384 146.117855,104.000952 L170.238188,91.1932352 C172.666679,68.2347981 164.228578,44.127553 147.284008,26.2707525 C109.130415,-12.266287 52.6867147,-5.22759739 23.2829645,26.8194441 C-8.48351168,59.9627997 -7.67906538,112.710105 25.2967721,145.595186 C56.2600329,176.70991 109.835249,179.053616 143.799674,146.951919 C147.284009,143.879994 151.512451,138.901043 151.512451,138.901043 Z" id="path-1"></path>
    </defs>
    <g id="Page-1" stroke="none" stroke-width="1" fill="none" fill-rule="evenodd">
        <g id="Artboard-1" transform="translate(-133.000000, -152.000000)">
            <g id="Mask-+-Group-+-rounded-copy-2" transform="translate(133.000000, 152.000000)">
                <g id="Mask-+-Group">
                    <mask id="mask-2" fill="white">
                        <use xlink:href="#path-1"></use>
                    </mask>
                    <g id="Mask"></g>
                    <circle id="Oval-1-Copy-15" fill="#7AC3F5" mask="url(#mask-2)" cx="51.5" cy="18.5" r="48.5"></circle>
                    <path d="M146.425781,50.875 C167.412602,50.875 163,37.9868205 163,17 C163,-3.98682049 167.412602,-12.0234375 146.425781,-12.0234375 C125.438961,-12.0234375 86.921875,-7.6875 86.921875,12 C86.921875,31.6875 125.438961,50.875 146.425781,50.875 Z" id="Oval-1-Copy-19" fill="#667ECC" mask="url(#mask-2)"></path>
                    <path d="M151.142824,105.300805 C191.828841,86.1679218 194,90.8915868 194,71.0060142 C194,51.1204417 215.566407,77.4843749 175.714844,49.4374999 C135.863281,21.3906249 133.0625,62.3898165 133.0625,82.275389 C133.0625,102.160962 110.456807,124.433688 151.142824,105.300805 Z" id="Oval-1-Copy-21" fill="#5B568A" mask="url(#mask-2)"></path>
                    <path d="M139.5,214 C179.540644,214 212,181.98836 212,142.5 C212,103.01164 211.181269,96.6523438 171.140625,96.6523438 C155.604718,96.6523438 144.093788,110.562105 127.160156,116.226562 C100.450791,125.161094 67,118.333259 67,142.5 C67,181.98836 99.4593556,214 139.5,214 Z" id="Oval-1-Copy-13" fill="#EE586F" mask="url(#mask-2)"></path>
                    <path d="M40.7636719,186.873047 C72.7961874,186.873047 107.109375,175.391602 107.109375,156.854492 C107.109375,138.317383 67.087203,114.029297 35.0546875,114.029297 C3.02217201,114.029297 -8,118.967485 -8,151 C-8,183.032515 8.73115639,186.873047 40.7636719,186.873047 Z" id="Oval-1-Copy-14" fill="#FEDA5E" mask="url(#mask-2)"></path>
                    <path d="M21.9492188,124.703125 C39.3964836,119.667969 29.5341797,102.724055 29.5341797,79.2519531 C29.5341797,64.2255285 81.414871,41.3893337 72.9433594,37.796875 C68.1819039,35.7777156 29.2989197,62.3281253 17.6728524,52.5849608 C9.03838073,43.8915945 9.93261639,41.0722658 6.48046875,29.0253906 C-2.46398678,32.6598665 -3.93164062,69.6658 -3.93164062,85.1894531 C-3.93164062,108.661555 4.61328045,128.785156 21.9492188,124.703125 Z" id="Oval-1-Copy-17" fill="#A2D975" mask="url(#mask-2)"></path>
                </g>
                <path d="M231,125.2 C231,130.81 235.455,135.1 240.9,135.1 C246.51,135.1 250.965,130.645 250.965,125.2 L250.965,99.46 C250.965,78.835 260.7,67.945 274.89,65.47 C279.345,64.645 282.81,61.18 282.81,55.9 C282.81,50.125 279.18,46 272.91,46 C264.165,46 255.585,49.7260936 250.965,60.6160936 L250.965,56.23 C250.965,50.62 246.51,46.165 240.9,46.165 C235.29,46.165 231,50.62 231,56.23 L231,125.2 Z M324.190425,136.255 C349.639271,136.255 368.374617,115.63 368.374617,90.88 L368.374617,90.55 C368.374617,65.635 349.795398,45.34 324.50268,45.34 C299.209962,45.34 280.474616,65.965 280.474616,90.88 L280.474616,91.21 C280.474616,115.96 299.053835,136.255 324.190425,136.255 L324.190425,136.255 Z M325.004616,118.765 C309.494616,118.765 298.439616,106.06 298.439616,90.88 L298.439616,90.55 C298.439616,75.37 308.669616,62.83 324.674616,62.83 C340.349616,62.83 351.404616,75.535 351.404616,90.88 L351.404616,91.21 C351.404616,106.225 341.174616,118.765 325.004616,118.765 L325.004616,118.765 Z M457.134231,56.23 C457.134231,50.62 452.514231,46.165 447.069231,46.165 C441.459231,46.165 437.004231,50.62 437.004231,56.23 L437.00423,91.1275015 C437.00423,104.657502 428.919231,117.775 417.369231,117.775 C405.489231,117.775 398.724231,110.185 398.724231,96.655 L398.724231,56.23 C398.724231,50.62 394.269231,46.165 388.659231,46.165 C383.214231,46.165 378.759231,50.62 378.759231,56.23 L378.759231,102.595 C378.759231,122.89 390.144231,136.09 409.779231,136.09 C423.309231,136.09 431.394231,130.995 437.004231,122.745 L437.004231,125.2 C437.004231,130.81 441.624231,135.1 447.069231,135.1 C452.679231,135.1 457.134231,130.645 457.134231,125.2 L457.134231,56.23 Z M471.133847,125.2 C471.133847,130.81 475.588847,135.1 481.033847,135.1 C486.643847,135.1 491.098847,130.81 491.098847,125.2 L491.098847,92.7078894 C491.098847,79.1778894 499.183847,63.49 510.733847,63.49 C522.613847,63.49 529.378847,71.245 529.378847,84.775 L529.378847,125.2 C529.378847,130.81 533.833847,135.1 539.443847,135.1 C545.053847,135.1 549.343847,130.81 549.343847,125.2 L549.343847,78.67 C549.343847,58.54 537.958847,45.34 518.323847,45.34 C504.793847,45.34 496.708847,51.435 491.098847,59.52 L491.098847,56.23 C491.098847,50.62 486.643847,46.165 481.033847,46.165 C475.423847,46.165 471.133847,50.62 471.133847,56.23 L471.133847,125.2 Z M648.153463,22.9 C648.153463,17.29 643.698463,13 638.088463,13 C632.643463,13 628.188463,17.29 628.188463,22.9 L628.188463,60.685 C621.918463,52.435 612.843463,45.34 598.488463,45.34 C577.698463,45.34 558.063463,61.675 558.063463,90.55 L558.063463,90.88 C558.063463,119.755 578.028463,136.09 598.488463,136.09 C612.678463,136.09 621.753463,128.83 628.188463,119.755 L628.188463,125.2 C628.188463,130.81 632.643463,135.1 638.253463,135.1 C643.698463,135.1 648.153463,130.81 648.153463,125.2 L648.153463,22.9 Z M600.280807,62.665 C612.051036,62.665 622.513463,73.72 622.513463,90.55 L622.513463,90.88 C622.513463,107.545 612.051036,118.765 600.280807,118.765 C588.365266,118.765 578.193463,107.71 578.193463,90.88 L578.193463,90.55 C578.193463,73.225 588.219955,62.665 600.280807,62.665 L600.280807,62.665 Z M677.333079,84.61 C679.148079,71.08 687.728079,61.675 699.938079,61.675 C713.138079,61.675 720.728079,71.74 722.048079,84.61 L677.333079,84.61 Z M733.598079,124.705 C735.083079,123.22 736.238079,121.075 736.238079,118.6 C736.238079,113.98 732.773079,110.515 728.318079,110.515 C726.008079,110.515 724.688079,111.175 723.203079,112.33 C717.593079,116.95 710.993079,119.92 702.578079,119.92 C689.708079,119.92 679.643079,112 677.498079,97.81 L732.113079,97.81 C737.228079,97.81 741.518079,93.85 741.518079,88.24 C741.518079,68.11 727.823079,45.34 700.103079,45.34 C675.188079,45.34 657.533079,65.8 657.533079,90.715 L657.533079,91.045 C657.533079,117.94 677.003079,136.255 702.248079,136.255 C715.778079,136.255 725.678079,131.8 733.598079,124.705 L733.598079,124.705 Z M836.697694,22.9 C836.697694,17.29 832.242694,13 826.632694,13 C821.187694,13 816.732694,17.29 816.732694,22.9 L816.732694,60.685 C810.462694,52.435 801.387694,45.34 787.032694,45.34 C766.242694,45.34 746.607694,61.675 746.607694,90.55 C746.607694,119.755 766.572694,136.09 787.032694,136.09 C801.222694,136.09 810.297694,128.83 816.732694,119.755 L816.732694,125.2 C816.732694,130.81 821.187694,135.1 826.797694,135.1 C832.242694,135.1 836.697694,130.81 836.697694,125.2 L836.697694,22.9 Z M789.021891,62.665 C800.897022,62.665 811.452694,73.72 811.452694,90.55 L811.452694,90.88 C811.452694,107.545 800.897022,118.765 789.021891,118.765 C777.000153,118.765 766.737694,107.71 766.737694,90.88 L766.737694,90.55 C766.737694,73.225 776.853547,62.665 789.021891,62.665 L789.021891,62.665 Z" id="rounded-copy-2" fill="#484458"></path>
            </g>
        </g>
    </g>
</svg>